# xmcd CD database file generated by LOLA_Freedb v0.9beta0
# 
# Track frame offsets:
#      150
#      21068
#      39868
#      57756
#      78156
#      96384
#      115027
#      133601
#      151821
#      168583
#      185247
#      203774
#      221980
# 
# Disc length: 3099 seconds
# 
# Revision: 3 
# Processed by: cddbd v1.5.2PL0 Copyright (c) Steve Scherf et al.
# Submitted via: LOLA_Freedb v0.9beta0
# 
DISCID=ac0c190d
DTITLE=Eros Ramazzotti - 9 [Italian]
DYEAR=2003
DGENRE=Latin
TTITLE0=Eros Ramazzotti - Un Attimo Di Pace
TTITLE1=Solo Ieri
TTITLE2=Un'emozione Per Sempre
TTITLE3=Ti Vorrei Rivivere
TTITLE4=Il Buio Ha I Tuoi Occhi
TTITLE5=Un'ancora Nel Vento
TTITLE6=Piccola Pietra
TTITLE7=Mamar??
TTITLE8=L' Uomo Che Guardava le Nuvole
TTITLE9=Canzone Per Lei
TTITLE10=Non Ti Prometto Niente
TTITLE11=Falsa Partenza
TTITLE12=C'?? Una Melodia
EXTD=YEAR: 2003
EXTT0=
EXTT1=
EXTT2=
EXTT3=
EXTT4=
EXTT5=
EXTT6=
EXTT7=
EXTT8=
EXTT9=
EXTT10=
EXTT11=
EXTT12=
PLAYORDER=
